# xmcd
#
# Track frame offsets: 
#        150
#        12495
#        25705
#        38617
#        51147
#        64355
#        78212
#        90732
#        103292
#        116435
#        129945
#        143642
#        156567
#        170632
#        182457
#        196582
#        210760
#        225297
#        240435
#        256170
#        268312
#        282185
#        296825
#        311832
#
# Disc length: 4349 seconds
#
# Revision: 0
# Processed by: cddbd v1.5PL3 Copyright (c) Steve Scherf et al.
# Submitted via: ExactAudioCopy v0.90b4
#
DISCID=4610fb18
DTITLE=Blind Lemon Jefferson - Complete Recorded Works in Chronologica
DTITLE=l Order Vol.4 - 1929
DYEAR=1929
DGENRE=Blues
TTITLE0=Eagle Eyed Mama
TTITLE1=Dynamite Blues
TTITLE2=Disgusted Blues
TTITLE3=Competition Bed Blues
TTITLE4=Sad News Blues
TTITLE5=Peach Orchard Mama
TTITLE6=Oil Well Blues
TTITLE7=Tin Cup Blues
TTITLE8=Big Night Blues
TTITLE9=Empty House Blues
TTITLE10=Saturday Night Spender Blues
TTITLE11=That Black Snake Moan No.2
TTITLE12=Bed Springs Blues
TTITLE13=Yo Yo Blues
TTITLE14=Mosquito Moan
TTITLE15=Southern Woman Blues
TTITLE16=Bakershop Blues
TTITLE17=Pneumonia Blues
TTITLE18=Long Distance Moan
TTITLE19=That Crawlin' Baby Blues
TTITLE20=Fence Breakin' Yellin' Blues
TTITLE21=Cat Man Blues
TTITLE22=The Cheaters Spell
TTITLE23=Bootin' Me 'Bout
EXTD=
EXTT0=
EXTT1=
EXTT2=
EXTT3=
EXTT4=
EXTT5=
EXTT6=
EXTT7=
EXTT8=
EXTT9=
EXTT10=
EXTT11=
EXTT12=
EXTT13=
EXTT14=
EXTT15=
EXTT16=
EXTT17=
EXTT18=
EXTT19=
EXTT20=
EXTT21=
EXTT22=
EXTT23=
PLAYORDER=
